<svg xmlns="http://www.w3.org/2000/svg" viewBox="0 0 24 24" fill="#e65100">
    <path d="M15.817.113a.391.391 0 0 0-.51-.01c-.056.046-6.233 5.45-7.98 7.354L3.33 3.846c.11-.637-.153-1.353-.745-1.941-1.204-1.201-3.141-1.155-4.326.103-1.185 1.259-1.139 3.193.065 4.394.59.59 1.307.85 1.946.74l3.62 3.996c-1.904 1.747-7.308 7.925-7.354 7.981a.39.39 0 0 0-.01.511.39.39 0 0 0 .51.01c.056-.046 6.233-5.45 7.98-7.354l3.996 3.62c-.11.639.153 1.355.744 1.944 1.204 1.201 3.141 1.155 4.326-.103 1.185-1.259 1.139-3.193-.065-4.394-.59-.59-1.307-.85-1.946-.74l-3.62-3.996c1.904-1.747 7.308-7.925 7.354-7.981a.39.39 0 0 0 .01-.511Z"/>
</svg>
